<svg width="24" height="24" viewBox="0 0 24 24" fill="none" xmlns="http://www.w3.org/2000/svg">
<path d="M18.7031 18.0234C17.625 16.1953 15.7031 14.9766 13.5 14.9766H10.5C8.25 14.9766 6.32812 16.1953 5.29688 18.0234C6.9375 19.8516 9.32812 20.9766 12 20.9766C14.625 20.9766 17.0156 19.8516 18.7031 18.0234ZM0 11.9766C0 7.71094 2.25 3.77344 6 1.61719C9.70312 -0.539062 14.25 -0.539062 18 1.61719C21.7031 3.77344 24 7.71094 24 11.9766C24 16.2891 21.7031 20.2266 18 22.3828C14.25 24.5391 9.70312 24.5391 6 22.3828C2.25 20.2266 0 16.2891 0 11.9766ZM12 12.7266C13.1719 12.7266 14.2969 12.1172 14.9062 11.0391C15.5156 10.0078 15.5156 8.74219 14.9062 7.66406C14.2969 6.63281 13.1719 5.97656 12 5.97656C10.7812 5.97656 9.65625 6.63281 9.04688 7.66406C8.4375 8.74219 8.4375 10.0078 9.04688 11.0391C9.65625 12.1172 10.7812 12.7266 12 12.7266Z" fill="currentColor"/>
</svg>
